<?xml version="1.0" standalone="no"?>
<!DOCTYPE svg PUBLIC "-//W3C//DTD SVG 20010904//EN"
 "http://www.w3.org/TR/2001/REC-SVG-20010904/DTD/svg10.dtd">
<svg version="1.0" xmlns="http://www.w3.org/2000/svg"
 width="225.000000pt" height="225.000000pt" viewBox="0 0 225.000000 225.000000"
 preserveAspectRatio="xMidYMid meet">

<g transform="translate(0.000000,225.000000) scale(0.100000,-0.100000)"
fill="#000000" stroke="none">
<path d="M1223 1828 c-21 -18 -63 -60 -93 -93 -30 -33 -80 -85 -110 -115 -30
-31 -118 -123 -195 -205 -77 -83 -186 -197 -242 -255 -74 -76 -105 -115 -109
-139 -7 -31 -2 -37 97 -133 286 -275 391 -368 417 -368 10 0 43 26 72 57 30
32 101 108 159 168 58 61 148 156 200 210 52 55 136 143 185 195 167 175 186
198 186 223 0 18 -20 43 -67 88 -38 34 -148 138 -245 231 -110 104 -184 168
-197 168 -11 0 -37 -15 -58 -32z m66 -52 c28 -29 31 -37 22 -55 -15 -28 -33
-27 -70 5 -33 27 -39 52 -19 72 19 19 32 15 67 -22z m-75 -81 c28 -26 33 -44
14 -63 -18 -18 -30 -15 -66 18 -28 25 -31 33 -22 50 14 27 41 25 74 -5z m299
-97 c137 -131 137 -133 31 -246 -67 -73 -80 -82 -111 -82 -32 0 -47 11 -144
107 -130 128 -133 138 -61 212 26 27 60 63 75 80 22 24 37 31 66 31 33 0 48
-10 144 -102z m-384 26 c37 -31 41 -69 10 -79 -15 -5 -29 1 -50 21 -31 30 -36
53 -17 72 17 17 22 15 57 -14z m-65 -93 c24 -24 26 -32 17 -50 -16 -28 -39
-26 -73 6 -31 29 -34 43 -16 61 19 19 42 14 72 -17z m-81 -79 c35 -36 35 -60
0 -68 -22 -6 -32 -1 -55 25 -23 26 -26 35 -18 51 15 28 42 25 73 -8z m246
-148 c138 -133 139 -135 44 -238 -72 -78 -105 -98 -139 -85 -30 11 -234 212
-234 230 1 25 24 57 93 129 95 97 97 97 236 -36z m480 82 c29 -31 25 -70 -7
-74 -48 -7 -98 52 -72 83 18 22 54 18 79 -9z m-806 -11 c56 -49 12 -100 -46
-55 -29 23 -34 49 -15 68 17 17 29 15 61 -13z m721 -66 c20 -15 26 -29 24 -48
-4 -35 -42 -40 -74 -10 -26 25 -31 48 -12 67 17 17 32 15 62 -9z m-790 -18
c53 -55 3 -98 -58 -50 -28 22 -33 48 -14 67 19 19 42 14 72 -17z m720 -70 c47
-49 14 -96 -44 -66 -34 17 -48 58 -30 80 19 23 43 18 74 -14z m-800 -10 c33
-35 29 -71 -9 -71 -34 0 -78 55 -65 81 15 27 42 24 74 -10z m719 -69 c31 -33
34 -57 9 -71 -14 -7 -26 -5 -47 9 -38 25 -48 45 -35 70 15 28 41 25 73 -8z
m-799 -11 c30 -31 31 -57 4 -75 -14 -8 -23 -5 -48 19 -32 31 -38 53 -18 73 18
18 32 15 62 -17z m223 -70 c87 -75 173 -166 173 -183 0 -37 -154 -198 -189
-198 -15 0 -55 31 -114 86 -126 119 -137 132 -137 159 0 28 100 159 138 180
43 23 58 18 129 -44z m497 13 c33 -32 39 -54 20 -75 -9 -10 -23 -19 -29 -19
-18 0 -65 50 -65 69 0 39 46 54 74 25z m-794 -29 l34 -35 -21 -22 c-21 -20
-23 -20 -48 -4 -14 9 -31 29 -38 43 -9 21 -8 27 8 39 26 19 26 19 65 -21z
m718 -64 c36 -34 39 -43 16 -65 -21 -21 -27 -20 -63 10 -33 27 -39 52 -19 72
18 18 30 15 66 -17z m-74 -77 c61 -62 2 -113 -62 -53 -26 24 -28 42 -6 63 22
22 37 20 68 -10z m-80 -83 c30 -31 31 -57 4 -75 -14 -8 -23 -5 -48 19 -32 31
-38 53 -18 73 18 18 32 15 62 -17z m-75 -77 c33 -27 39 -52 19 -72 -19 -19
-47 -14 -73 14 -29 32 -32 59 -7 73 24 15 27 14 61 -15z m-65 -97 c16 -21 18
-32 10 -45 -18 -28 -42 -25 -75 7 -25 26 -28 34 -19 51 16 29 57 23 84 -13z"/>
</g>
</svg>
