<svg width="20" height="20" viewBox="0 0 20 20" fill="none" xmlns="http://www.w3.org/2000/svg">
<path fill-rule="evenodd" clip-rule="evenodd" d="M9.109 2.49299C9.51559 2.06036 10.0038 1.71245 10.5454 1.46933C11.0871 1.22621 11.6715 1.09268 12.265 1.07642C12.8585 1.06017 13.4493 1.16152 14.0034 1.37464C14.5576 1.58775 15.0641 1.90841 15.4937 2.31815C15.9234 2.72789 16.2677 3.2186 16.5069 3.76201C16.7461 4.30542 16.8753 4.89078 16.8872 5.48437C16.8992 6.07796 16.7935 6.66804 16.5764 7.22062C16.3592 7.77319 16.0349 8.27733 15.622 8.70399L10.273 14.312C9.76975 14.8399 9.0774 15.1463 8.34826 15.1637C7.61912 15.1812 6.91291 14.9082 6.385 14.405C5.85709 13.9017 5.55071 13.2094 5.53327 12.4803C5.51583 11.7511 5.78875 11.0449 6.292 10.517L10.776 5.80999C10.959 5.61798 11.2108 5.50652 11.476 5.50014C11.7411 5.49377 11.998 5.59299 12.19 5.77599C12.382 5.95899 12.4935 6.21077 12.4998 6.47595C12.5062 6.74113 12.407 6.99798 12.224 7.18999L7.74 11.896C7.60262 12.04 7.52807 12.2327 7.53276 12.4317C7.53745 12.6306 7.62099 12.8196 7.765 12.957C7.90901 13.0944 8.1017 13.1689 8.30068 13.1642C8.49965 13.1595 8.68862 13.076 8.826 12.932L14.175 7.32399C14.6326 6.84408 14.8809 6.20204 14.8651 5.5391C14.8494 4.87615 14.5709 4.24662 14.091 3.78899C13.6111 3.33136 12.969 3.08312 12.3061 3.09887C11.6432 3.11462 11.0136 3.39308 10.556 3.87299L5.726 8.93899C5.543 9.13101 5.29122 9.24247 5.02604 9.24884C4.76086 9.25522 4.50402 9.15599 4.312 8.97299C4.11998 8.78999 4.00853 8.53821 4.00215 8.27303C3.99577 8.00786 4.095 7.75101 4.278 7.55899L9.109 2.49299Z" fill="white"/>
<path fill-rule="evenodd" clip-rule="evenodd" d="M4.82401 15.68C4.45201 15.325 4.09801 14.754 3.78801 14.075C3.18801 12.765 3.62001 11.146 4.79201 9.916L9.17601 5.32C9.26989 5.22564 9.34399 5.11349 9.39396 4.99013C9.44394 4.86676 9.46878 4.73466 9.46703 4.60157C9.46529 4.46848 9.43699 4.33708 9.3838 4.21506C9.33061 4.09305 9.25359 3.98288 9.15727 3.89102C9.06095 3.79916 8.94726 3.72745 8.82286 3.6801C8.69847 3.63275 8.56587 3.61071 8.43285 3.61527C8.29982 3.61983 8.16905 3.65091 8.04819 3.70667C7.92733 3.76243 7.81882 3.84175 7.72901 3.94L3.34501 8.536C1.79601 10.16 0.928014 12.631 1.97001 14.906C2.32201 15.676 2.80301 16.515 3.44501 17.126C4.07701 17.73 4.92101 18.166 5.69501 18.48C8.04001 19.43 10.492 18.419 12.04 16.765L17.731 10.683C17.8245 10.5879 17.8981 10.475 17.9473 10.351C17.9965 10.227 18.0205 10.0944 18.0177 9.96106C18.0149 9.82769 17.9855 9.69622 17.9311 9.5744C17.8767 9.45258 17.7985 9.34287 17.7011 9.25172C17.6037 9.16058 17.489 9.08985 17.3639 9.0437C17.2387 8.99755 17.1056 8.97691 16.9723 8.98299C16.839 8.98907 16.7083 9.02175 16.5879 9.07912C16.4675 9.13648 16.3597 9.21736 16.271 9.317L10.579 15.397C9.40601 16.652 7.79401 17.172 6.44601 16.627C5.76601 16.35 5.19101 16.028 4.82501 15.679" fill="white"/>
</svg>
