<?xml version="1.0" encoding="UTF-8"?>
<svg id="Layer_2" data-name="Layer 2" xmlns="http://www.w3.org/2000/svg" xmlns:xlink="http://www.w3.org/1999/xlink" viewBox="0 0 1920 1080">
  <defs>
    <style>
      .cls-1 {
        stroke: url(#radial-gradient);
      }

      .cls-1, .cls-2 {
        fill: none;
        stroke-miterlimit: 10;
        stroke-width: 18px;
      }

      .cls-2 {
        stroke: url(#radial-gradient-2);
      }
    </style>
    <radialGradient id="radial-gradient" cx="745.63" cy="512.71" fx="745.63" fy="512.71" r="255.81" gradientTransform="translate(-1543.23 2699.19) rotate(-120.06) scale(1 6)" gradientUnits="userSpaceOnUse">
      <stop offset="0" stop-color="#5f41d2"/>
      <stop offset=".21" stop-color="#5d40cf"/>
      <stop offset=".36" stop-color="#593dc6"/>
      <stop offset=".48" stop-color="#5238b7"/>
      <stop offset=".59" stop-color="#4931a1"/>
      <stop offset=".7" stop-color="#3c2985"/>
      <stop offset=".8" stop-color="#2c1e63"/>
      <stop offset=".89" stop-color="#1a123a"/>
      <stop offset=".98" stop-color="#05030c"/>
      <stop offset="1" stop-color="#000"/>
    </radialGradient>
    <radialGradient id="radial-gradient-2" cx="1190.72" cy="539.98" fx="1190.72" fy="539.98" r="137.26" gradientTransform="translate(-2886.04 4275.68) rotate(-120.06) scale(1 10)" gradientUnits="userSpaceOnUse">
      <stop offset="0" stop-color="#000"/>
      <stop offset=".04" stop-color="#070511"/>
      <stop offset=".17" stop-color="#1e1544"/>
      <stop offset=".31" stop-color="#32226f"/>
      <stop offset=".45" stop-color="#422d93"/>
      <stop offset=".58" stop-color="#4f36ae"/>
      <stop offset=".72" stop-color="#573cc2"/>
      <stop offset=".86" stop-color="#5d3fce"/>
      <stop offset="1" stop-color="#5f41d2"/>
    </radialGradient>
  </defs>
  <path class="cls-1" d="M803,473.97h-17.37c-6.72-.02-12.74,4.13-15.11,10.41l-24.01,63.48c-5.27,13.93-24.99,13.9-30.21-.05l-23.77-63.5c-2.36-6.3-8.37-10.47-15.1-10.48h0M774.89,606.39h0c10.78.01,17.2-7.07,17.18-17.51l2.09-121.72M841.02,614.25l.13-118.86c.01-11.35-9.18-20.56-20.52-20.57h0M969.85,604.66l.13-111.64c.01-10.95-8.85-19.83-19.8-19.84h0M950.03,604.64l40.69.05M837,483l69,126M906.95,613.35l.14-119.93c.01-10.76-8.7-19.49-19.45-19.5M509.9,380.16l-.38,333.11c0,6.69,2.67,13.1,7.43,17.79l31.98,31.51c4.66,4.59,10.93,7.17,17.47,7.18l52.06.06c6.91,0,13.52-2.85,18.24-7.9l27.74-29.66c4.31-4.61,6.72-10.69,6.73-17.01l.47-416.57c0-6.01-2.15-11.81-6.09-16.35l-15.63-18.05c-4.73-5.46-11.6-8.6-18.82-8.61l-29.69-.03c-6.74,0-13.2,2.72-17.9,7.55l-17.77,18.26c-4.52,4.65-7.05,10.87-7.06,17.36l-.35,313.06c0,7.48,3.34,14.57,9.12,19.31l5.38,4.42c4.45,3.65,10.03,5.65,15.78,5.65l17.77.02c6.61,0,12.96-2.61,17.64-7.28h0c4.68-4.67,7.32-11.01,7.32-17.62l.27-239.94M671.46,467.02l-.51,120.33"/>
  <path class="cls-2" d="M1124.96,608.88h0c12.84.01,23.26-10.38,23.28-23.22l.13-114.67M1129.56,608.74l59.79.07c4.03,0,3.9-3.75,3.9-7.79l.02-16.55M1219.54,606.89l38.95.04M1332.71,607.02l-46.45-.05M1309.48,606.99l.12-110.18c.01-12.83-10.37-23.24-23.2-23.25h0M1305.82,550.24l27.17.03c6.16,0,12.07-2.43,16.43-6.78l3.26-3.25c4.36-4.35,6.81-10.26,6.82-16.42l.02-13.29c0-6.23-2.49-12.19-6.92-16.57l-6.88-6.79c-4.48-4.41-10.55-6.83-16.84-6.68l-22.98.53M1239.02,606.91l.13-116.78c.01-8.94-7.23-16.2-16.17-16.21h-3.29M1095.69,500.07v-10.54c.02-7.61-4.72-14.41-11.86-17.04h0c-5.87-2.16-15.98-2.05-20.92,1.79l-33.93,29.97c-4.42,3.43-7.01,8.71-7.02,14.31l-.03,24.6h.02s.2,17.16.2,17.16c.06,5.52,2.64,10.7,6.99,14.1l33.62,30.35c4.94,3.85,15.39,3.77,21.27,1.62h0c7.15-2.61,11.9-9.41,11.91-17.02v-10.54"/>
</svg>